<svg width="208" height="66" viewBox="0 0 208 66" fill="none" xmlns="http://www.w3.org/2000/svg">
<g filter="url(#filter0_dd_19300_384)">
<path d="M14.2957 0.695277C10.2257 2.42977 5.69784 7.27615 4.27334 13.3979C2.49271 21.1011 9.97134 24.366 10.5818 23.2947C11.2941 22.0193 9.25909 21.6112 8.80121 17.6321C8.24159 12.4796 10.6327 6.66398 13.6852 4.16427C14.2448 3.70514 14.2448 4.36832 14.2448 5.54166C14.2448 7.73528 14.1431 27.1718 14.1431 31.253C14.1431 36.7625 13.9396 38.497 13.5326 40.1805C13.1256 41.915 12.4642 43.0883 12.973 43.5475C13.5326 44.0576 15.9237 42.8333 17.2973 40.8947C18.9762 38.548 19.5358 35.7933 19.6376 32.7324C19.7393 29.0593 19.7393 23.2437 19.7393 19.9788C19.7393 16.9179 19.7902 8.04137 19.6885 2.68484C19.6376 1.35847 16.0255 -0.0189264 14.2957 0.695277ZM159.646 26.4576C159.493 29.3144 158.882 31.5591 158.119 33.1405C156.593 36.2014 153.439 37.1196 152.116 32.7324C151.404 30.3347 151.353 26.3556 151.862 22.9886C152.37 19.5707 153.897 17.0199 156.339 17.275C158.781 17.5301 159.9 20.642 159.646 26.4576ZM118.691 44.2107C118.64 48.955 117.928 53.1382 116.3 54.3115C114.011 56.046 111.009 54.7197 111.62 51.2507C112.179 48.1898 114.825 45.0269 118.691 41.2008C118.691 41.2518 118.691 42.1191 118.691 44.2107ZM118.03 26.4066C117.877 29.0083 117.216 31.6101 116.504 33.0895C114.977 36.1504 111.823 37.1196 110.5 32.6814C109.585 29.6715 109.839 25.7944 110.246 23.3457C110.806 20.1828 112.23 17.224 114.723 17.224C117.216 17.275 118.386 19.9788 118.03 26.4066ZM94.3221 26.4066C94.1695 29.1614 93.6607 31.457 92.7958 33.1405C91.2187 36.1504 88.1662 37.1196 86.7926 32.7324C85.826 29.5695 86.1312 25.2843 86.5382 22.9376C87.1487 19.4686 88.675 17.0199 91.0152 17.275C93.4572 17.5301 94.6273 20.642 94.3221 26.4066ZM203.093 29.6205C202.482 29.6205 202.228 30.2327 202.024 31.253C201.261 34.824 200.447 35.6402 199.379 35.6402C198.209 35.6402 197.14 33.8547 196.886 30.2837C196.683 27.4779 196.683 22.3254 196.988 17.224C197.039 16.1527 196.733 15.1324 193.935 14.1121C192.714 13.653 190.985 13.0408 190.069 15.1324C187.576 21.1521 186.609 25.8965 186.406 27.835C186.406 27.937 186.253 27.937 186.253 27.733C186.101 26.2025 185.795 23.3457 185.744 17.428C185.744 16.2547 185.49 15.2854 184.218 14.4692C183.404 13.9591 180.911 13.0408 179.996 14.1121C179.232 15.0304 178.317 17.428 177.35 20.2849C176.587 22.6315 176.078 24.213 176.078 24.213C176.078 24.213 176.078 17.9382 176.078 15.5405C176.078 14.6222 175.468 14.3162 175.264 14.2651C174.45 14.0101 172.771 13.602 172.11 13.602C171.245 13.602 171.042 14.0611 171.042 14.7753C171.042 14.8773 170.889 23.0396 170.889 28.7533C170.889 29.0083 170.889 29.2634 170.889 29.5695C170.431 32.2222 168.854 35.7933 167.175 35.7933C165.496 35.7933 164.682 34.3138 164.682 27.4779C164.682 23.4988 164.784 21.7643 164.835 18.9075C164.886 17.275 164.937 15.9996 164.937 15.6935C164.937 14.8263 163.41 14.3672 162.698 14.2141C161.986 14.0611 161.375 13.9591 160.867 14.0101C160.205 14.0611 159.696 14.5202 159.696 15.1324C159.696 15.4895 159.696 16.1017 159.696 16.1017C158.832 14.7243 157.407 13.755 156.44 13.4489C153.897 12.6837 151.251 13.3469 149.216 16.1527C147.639 18.3973 146.672 20.897 146.265 24.5701C146.011 27.2228 146.062 29.9266 146.571 32.2222C145.96 34.773 144.892 35.8443 143.671 35.8443C141.941 35.8443 140.669 32.9875 140.822 28.0391C140.924 24.7741 141.585 22.4785 142.297 19.1625C142.602 17.7341 142.348 17.0199 141.738 16.3057C141.178 15.6425 139.957 15.3364 138.227 15.7446C137.006 16.0506 135.226 16.3567 133.598 16.6118C133.598 16.6118 133.699 16.2037 133.75 15.5405C134.157 11.9185 130.24 12.2246 129.019 13.3979C128.256 14.0611 127.747 14.8773 127.594 16.3567C127.289 18.6524 129.171 19.7747 129.171 19.7747C128.561 22.6315 127.035 26.3046 125.458 29.0083C124.644 30.4367 123.982 31.508 123.168 32.6304C123.168 32.2222 123.168 31.7631 123.168 31.355C123.168 25.3863 123.219 20.693 123.27 19.0095C123.321 17.377 123.372 16.1017 123.372 15.8466C123.372 15.1834 122.965 14.9793 122.202 14.6222C121.489 14.3672 120.675 14.1631 119.81 14.1121C118.742 14.0101 118.081 14.6222 118.081 15.2854C118.081 15.4385 118.081 16.2037 118.081 16.2037C117.216 14.8263 115.791 13.857 114.825 13.5509C112.281 12.7857 109.635 13.4489 107.6 16.2547C106.023 18.4993 104.955 21.6112 104.65 24.6211C104.395 27.4269 104.446 29.8246 104.802 31.8141C104.395 33.8037 103.225 35.8953 101.902 35.8953C100.224 35.8953 99.257 34.4159 99.257 27.5799C99.257 23.6008 99.3587 21.8663 99.4096 19.0095C99.4605 17.377 99.5113 16.1017 99.5113 15.7956C99.5113 14.9283 97.9851 14.4692 97.2728 14.3162C96.5097 14.1631 95.8992 14.0611 95.3905 14.1121C94.7291 14.1631 94.2712 14.7243 94.2712 15.1834V16.2037C93.4063 14.8263 91.9818 13.857 91.0152 13.5509C88.4715 12.7857 85.826 13.4999 83.791 16.2547C82.4682 18.0912 81.3998 20.1318 80.8402 24.5701C80.6876 25.8454 80.6367 27.0698 80.6367 28.1921C80.128 31.406 77.7877 35.1301 75.9053 35.1301C74.7861 35.1301 73.7177 32.9875 73.7177 28.3451C73.7177 22.2234 74.0738 13.4999 74.1756 12.6327C74.1756 12.6327 76.5667 12.5817 77.0246 12.5817C78.1947 12.5817 79.314 12.5817 80.8911 12.5306C81.7051 12.4796 82.4682 9.62282 81.6542 9.26572C81.2981 9.11267 78.6526 8.95963 77.5842 8.95963C76.7193 8.95963 74.2773 8.75557 74.2773 8.75557C74.2773 8.75557 74.4808 2.93992 74.5317 2.32774C74.5826 1.8176 73.9212 1.56252 73.5651 1.40948C72.6493 1.00136 71.8353 0.848321 70.8687 0.644263C69.546 0.389191 68.9355 0.644262 68.7828 1.76658C68.5793 3.50107 68.5285 8.55151 68.5285 8.55151C67.5618 8.55151 64.1532 8.34745 63.1866 8.34745C62.2708 8.34745 61.3042 12.3266 62.5252 12.3266C64.0006 12.3776 66.5443 12.4286 68.2232 12.4796C68.2232 12.4796 68.1723 21.3562 68.1723 24.1109C68.1723 24.417 68.1723 24.6721 68.1723 24.9782C67.2566 29.8246 64.0006 32.4263 64.0006 32.4263C64.7128 29.2124 63.2883 26.8147 60.6937 24.7741C59.7271 24.0089 57.8447 22.5805 55.7588 21.0501C55.7588 21.0501 56.9798 19.8257 58.0482 17.428C58.8113 15.6935 58.8622 13.755 56.9798 13.3469C53.8765 12.6327 51.3327 14.9283 50.5696 17.377C49.9591 19.2646 50.3152 20.642 51.4345 22.1214C51.5362 22.2234 51.5871 22.3254 51.6888 22.4275C50.9766 23.8049 50.01 25.5904 49.196 27.0188C46.9575 30.9469 45.2277 34.0588 43.9558 34.0588C42.9383 34.0588 42.9383 30.8959 42.9383 27.988C42.9383 25.4373 43.1418 21.6112 43.2945 17.6831C43.3453 16.3567 42.684 15.6425 41.6156 14.9793C40.9542 14.5712 39.5297 13.755 38.7157 13.755C37.4947 13.755 33.9335 13.908 30.5757 23.6518C30.1687 24.8762 29.3038 27.1208 29.3038 27.1208L29.3547 15.4385C29.3547 15.1834 29.2021 14.8773 28.8968 14.7243C28.3372 14.4182 26.811 13.806 25.4882 13.806C24.8268 13.806 24.5216 14.1121 24.5216 14.6733L24.4198 32.9365C24.4198 34.3138 24.4707 35.9463 24.5725 36.6605C24.7251 37.3747 24.9286 37.9359 25.183 38.293C25.4373 38.6501 25.7935 38.9052 26.3022 39.0072C26.811 39.1092 29.4565 39.4663 29.6091 38.446C29.7617 37.2217 29.7617 35.8953 31.1862 30.9979C33.3738 23.3457 36.172 19.5706 37.5456 18.2443C37.8 17.9892 38.0543 17.9892 38.0543 18.3973C38.0035 20.0808 37.8 24.264 37.6473 27.835C37.2912 37.3747 39.021 39.1602 41.5138 39.1602C43.3962 39.1602 46.0926 37.2727 48.9416 32.4773C50.7222 29.5185 52.452 26.5596 53.7238 24.468C54.5887 25.2843 55.5553 26.1515 56.522 27.0698C58.7605 29.2124 59.5236 31.253 59.0148 33.1915C58.6587 34.671 57.2342 36.2014 54.6905 34.722C53.9782 34.3138 53.6221 33.9567 52.9098 33.4466C52.5028 33.1915 51.8923 33.0895 51.5362 33.3956C50.5696 34.1098 50.0608 35.0281 49.7556 36.1504C49.4503 37.2217 50.5696 37.8338 51.6888 38.344C52.6555 38.8031 54.7413 39.1602 56.115 39.2112C61.3042 39.3643 65.5268 36.7115 68.4267 29.7225C68.9355 35.7423 71.174 39.1602 74.9896 39.1602C77.5842 39.1602 80.128 35.8443 81.2472 32.5283C81.5525 33.8547 82.0612 35.0281 82.6717 35.9973C85.6225 40.6907 91.3713 39.6704 94.2712 35.6912C95.187 34.4669 95.2887 34.0078 95.2887 34.0078C95.6957 37.7828 98.7482 39.1092 100.478 39.1092C102.411 39.1092 104.446 38.1909 105.82 35.028C105.972 35.3851 106.176 35.6912 106.379 35.9973C109.33 40.6907 115.079 39.6704 117.979 35.6912C118.132 35.4872 118.233 35.3341 118.335 35.1811L118.437 37.6808C118.437 37.6808 116.809 39.2112 115.791 40.1295C111.314 44.2107 107.957 47.3226 107.702 50.9446C107.397 55.5359 111.111 57.2704 113.96 57.4744C116.961 57.7295 119.505 56.046 121.082 53.7504C122.456 51.7098 123.372 47.3225 123.321 42.9353C123.27 41.2008 123.27 38.9562 123.219 36.6095C124.796 34.773 126.526 32.4773 128.154 29.7736C129.935 26.8147 131.817 22.8866 132.784 19.8257C132.784 19.8257 134.412 19.8257 136.192 19.7237C136.752 19.6727 136.904 19.8257 136.803 20.2338C136.701 20.744 134.564 28.8553 136.497 34.2628C137.82 37.9359 140.771 39.1602 142.501 39.1602C144.536 39.1602 146.52 37.6298 147.537 35.2831C147.639 35.5382 147.792 35.7933 147.944 35.9973C150.895 40.6907 156.644 39.6704 159.544 35.6912C160.205 34.773 160.561 34.0078 160.561 34.0078C161.172 37.9359 164.224 39.1092 165.954 39.1092C167.786 39.1092 169.464 38.344 170.889 35.0791C170.94 36.5585 171.042 37.7318 171.194 38.0889C171.296 38.293 171.805 38.5991 172.161 38.7521C173.84 39.3643 175.519 39.0582 176.129 38.9562C176.587 38.8541 176.892 38.497 176.943 37.6298C177.045 35.2831 176.994 31.304 177.706 28.3451C178.927 23.3967 179.996 21.4582 180.555 20.5399C180.86 20.0298 181.166 19.9277 181.217 20.4889C181.217 21.6112 181.318 24.9782 181.776 29.4675C182.132 32.7834 182.59 34.722 182.946 35.3341C183.964 37.1196 185.185 37.1707 186.202 37.1707C186.864 37.1707 188.186 37.0176 188.034 35.8443C187.983 35.2831 188.085 31.9162 189.255 27.0188C190.018 23.8559 191.29 20.948 191.799 19.9278C191.951 19.5196 192.053 19.8257 192.053 19.9278C191.951 22.1214 191.748 29.2634 192.613 33.1915C193.834 38.497 197.293 39.1092 198.514 39.1092C201.109 39.1092 203.245 37.1196 203.958 31.9162C204.11 30.5898 203.856 29.6205 203.093 29.6205Z" fill="#262626"/>
</g>
<defs>
<filter id="filter0_dd_19300_384" x="0" y="0.5" width="208" height="65" filterUnits="userSpaceOnUse" color-interpolation-filters="sRGB">
<feFlood flood-opacity="0" result="BackgroundImageFix"/>
<feColorMatrix in="SourceAlpha" type="matrix" values="0 0 0 0 0 0 0 0 0 0 0 0 0 0 0 0 0 0 127 0" result="hardAlpha"/>
<feOffset dy="4"/>
<feGaussianBlur stdDeviation="2"/>
<feComposite in2="hardAlpha" operator="out"/>
<feColorMatrix type="matrix" values="0 0 0 0 0 0 0 0 0 0 0 0 0 0 0 0 0 0 0.25 0"/>
<feBlend mode="normal" in2="BackgroundImageFix" result="effect1_dropShadow_19300_384"/>
<feColorMatrix in="SourceAlpha" type="matrix" values="0 0 0 0 0 0 0 0 0 0 0 0 0 0 0 0 0 0 127 0" result="hardAlpha"/>
<feOffset dy="4"/>
<feGaussianBlur stdDeviation="2"/>
<feComposite in2="hardAlpha" operator="out"/>
<feColorMatrix type="matrix" values="0 0 0 0 0 0 0 0 0 0 0 0 0 0 0 0 0 0 0.25 0"/>
<feBlend mode="normal" in2="effect1_dropShadow_19300_384" result="effect2_dropShadow_19300_384"/>
<feBlend mode="normal" in="SourceGraphic" in2="effect2_dropShadow_19300_384" result="shape"/>
</filter>
</defs>
</svg>
