<svg width="208" height="56" viewBox="0 0 208 56" fill="none" xmlns="http://www.w3.org/2000/svg">
<g filter="url(#filter0_d_19296_333)">
<path d="M82.7437 17.1366H89.0737V37.1036H82.7437V17.1366Z" fill="black"/>
<path d="M90.3953 17.1366H96.4922V19.8664H96.6086C98.0844 17.7215 99.9872 16.5517 102.745 16.5517C107.094 16.5517 109.657 19.6715 109.657 24.1173V37.1036H103.327V25.4043C103.327 23.2983 102.279 21.8552 100.22 21.8552C98.1234 21.8552 96.7252 23.6103 96.7252 26.0671V37.1036H90.3953V17.1366Z" fill="black"/>
<path d="M89.7054 11.7945C89.7054 9.6885 88.0053 7.98144 85.9084 7.98144C83.8114 7.98144 82.1113 9.6885 82.1113 11.7945C82.1113 13.9004 83.8114 15.6074 85.9084 15.6074C88.0053 15.6074 89.7054 13.9004 89.7054 11.7945Z" fill="black"/>
<path d="M154.177 16.8481C153.996 16.8318 153.789 16.8245 153.547 16.8245C151.139 16.8245 149.508 17.8774 148.11 20.2563H147.993V17.1365H141.935V37.1034H148.265V28.1339C148.265 23.9779 150.557 22.0521 154.177 22.3881V16.8481Z" fill="black"/>
<path d="M185.24 24.5072C182.716 24.0393 180.464 23.8444 180.464 22.4405C180.464 21.1924 181.668 20.6075 183.221 20.6075C184.968 20.6075 186.172 21.1534 186.405 22.9475H192.23C191.92 19.0087 188.891 16.5517 183.26 16.5517C178.561 16.5517 174.677 18.7356 174.677 22.9475C174.677 27.627 178.367 28.563 181.823 29.1481C184.464 29.6161 186.871 29.8111 186.871 31.6049C186.871 32.8919 185.667 33.5939 183.765 33.5939C181.856 33.5939 180.593 32.7828 180.206 31.1371H174.174C174.618 35.2417 178.206 37.7277 183.803 37.7277C189.007 37.7277 192.852 35.4658 192.852 31.0981C192.852 25.9892 188.735 25.0922 185.24 24.5072Z" fill="black"/>
<path d="M163.996 21.0754C166.054 21.0754 167.53 22.5963 167.763 24.9754H159.919C160.346 22.5963 161.589 21.0754 163.996 21.0754ZM164.346 33.1257C161.744 33.1257 160.268 31.4489 159.88 28.758H174.171C174.21 24.7023 173.045 21.2314 170.676 19.0476C168.967 17.4877 166.715 16.5517 163.879 16.5517C157.821 16.5517 153.666 21.1143 153.666 27.0812C153.666 33.1257 157.705 37.6887 164.268 37.6887C166.792 37.6887 168.812 37.0257 170.481 35.8558C172.229 34.6468 173.394 32.9309 173.821 31.1371H167.647C167.103 32.385 166.016 33.1257 164.346 33.1257Z" fill="black"/>
<path d="M204 32.3952C203.707 32.4068 203.313 32.4239 202.951 32.4239C201.592 32.4239 200.738 32.0338 200.738 30.4739V21.1143H204V17.1365H200.738V10.8188H194.563V17.1365H192.62V21.1143H194.563V31.8388C194.563 36.1288 197.204 37.3375 200.893 37.3375C202.301 37.3375 203.365 37.2317 204 37.1071V32.3952Z" fill="black"/>
<path d="M120.961 32.4042C120.709 32.4141 120.417 32.4239 120.145 32.4239C118.786 32.4239 117.931 32.0338 117.931 30.4739V21.1143H120.961V17.1365H117.931V10.8188H111.757V17.1365H109.698V21.1143H111.757V31.8388C111.757 36.1288 114.397 37.3375 118.087 37.3375C119.335 37.3375 120.312 37.2541 120.961 37.1485V32.4042Z" fill="black"/>
<path d="M134.749 24.9754C134.516 22.5965 133.04 21.0753 130.982 21.0753C128.574 21.0753 127.332 22.5965 126.904 24.9754H134.749ZM120.652 27.0812C120.652 21.1145 124.807 16.5518 130.865 16.5518C133.7 16.5518 135.953 17.4877 137.661 19.0476C140.03 21.2316 141.195 24.7023 141.156 28.7582H126.866C127.254 31.4489 128.729 33.1259 131.332 33.1259C133.001 33.1259 134.089 32.385 134.632 31.1371H140.807C140.38 32.9309 139.215 34.6468 137.467 35.8559C135.797 37.0257 133.778 37.6887 131.254 37.6887C124.691 37.6887 120.652 33.1259 120.652 27.0812Z" fill="black"/>
<path d="M71.7506 22.3234C74.236 22.3234 75.634 20.8414 75.634 18.6183C75.634 16.3957 74.197 15.0307 71.7506 15.0307H66.896V22.3234H71.7506ZM60.4875 9.21999H71.4798C74.8582 9.21999 77.3437 10.1559 79.0524 11.7939C80.8388 13.4706 81.8485 15.8497 81.8485 18.6575C81.8485 24.0002 78.1592 27.7832 72.4505 27.7832H66.896V37.1036H60.4875V9.21999Z" fill="black"/>
<path d="M51.7981 24.0001C51.7981 37.2548 41.0981 48 27.8992 48C14.7002 48 4.00024 37.2548 4.00024 24.0001C4.00024 10.7451 14.7002 0.000148773 27.8992 0.000148773C41.0981 0.000148773 51.7981 10.7451 51.7981 24.0001Z" fill="white"/>
<path d="M27.8989 -9.53674e-05C14.7 -9.53674e-05 4 10.7451 4 23.9998C4 34.1674 10.2993 42.8593 19.1895 46.3562C18.9807 44.4574 18.7919 41.5371 19.2724 39.4641C19.7067 37.591 22.0748 27.5345 22.0748 27.5345C22.0748 27.5345 21.36 26.0968 21.36 23.9713C21.36 20.6341 23.2861 18.1427 25.6844 18.1427C27.7234 18.1427 28.7082 19.68 28.7082 21.5233C28.7082 23.5826 27.4027 26.6612 26.729 29.5143C26.1659 31.903 27.9218 33.8511 30.268 33.8511C34.5156 33.8511 37.7808 29.3533 37.7808 22.8609C37.7808 17.1145 33.6691 13.0969 27.798 13.0969C20.998 13.0969 17.0066 18.2188 17.0066 23.5121C17.0066 25.5749 17.7978 27.7868 18.7852 28.9892C18.9805 29.2268 19.0091 29.435 18.9509 29.6776C18.7695 30.4356 18.3664 32.0657 18.2872 32.3994C18.183 32.8387 17.9408 32.9319 17.4879 32.7202C14.5031 31.325 12.6369 26.9426 12.6369 23.4226C12.6369 15.8519 18.1144 8.89915 28.4279 8.89915C36.7184 8.89915 43.1612 14.8318 43.1612 22.7604C43.1612 31.0317 37.9679 37.6884 30.7597 37.6884C28.338 37.6884 26.0613 36.4249 25.282 34.9325C25.282 34.9325 24.0837 39.5148 23.7931 40.6378C23.2536 42.7224 21.7971 45.3354 20.8228 46.9295C23.0589 47.6248 25.4352 47.9998 27.8989 47.9998C41.0981 47.9998 51.798 37.2546 51.798 23.9998C51.798 10.7451 41.0981 -9.53674e-05 27.8989 -9.53674e-05Z" fill="black"/>
</g>
<defs>
<filter id="filter0_d_19296_333" x="0" y="-0.00012207" width="208" height="56.0001" filterUnits="userSpaceOnUse" color-interpolation-filters="sRGB">
<feFlood flood-opacity="0" result="BackgroundImageFix"/>
<feColorMatrix in="SourceAlpha" type="matrix" values="0 0 0 0 0 0 0 0 0 0 0 0 0 0 0 0 0 0 127 0" result="hardAlpha"/>
<feOffset dy="4"/>
<feGaussianBlur stdDeviation="2"/>
<feComposite in2="hardAlpha" operator="out"/>
<feColorMatrix type="matrix" values="0 0 0 0 0 0 0 0 0 0 0 0 0 0 0 0 0 0 0.25 0"/>
<feBlend mode="normal" in2="BackgroundImageFix" result="effect1_dropShadow_19296_333"/>
<feBlend mode="normal" in="SourceGraphic" in2="effect1_dropShadow_19296_333" result="shape"/>
</filter>
</defs>
</svg>
