<?xml version="1.0" standalone="no"?>
<!DOCTYPE svg PUBLIC "-//W3C//DTD SVG 20010904//EN"
 "http://www.w3.org/TR/2001/REC-SVG-20010904/DTD/svg10.dtd">
<svg version="1.0" xmlns="http://www.w3.org/2000/svg"
 width="528.000000pt" height="528.000000pt" viewBox="0 0 528.000000 528.000000"
 preserveAspectRatio="xMidYMid meet">
<metadata>
Created by potrace 1.14, written by Peter Selinger 2001-2017
</metadata>
<g transform="translate(0.000000,528.000000) scale(0.100000,-0.100000)"
fill="#000000" stroke="none">
<path d="M236 5179 c10 -12 133 -135 272 -273 l253 -253 168 171 c93 94 215
217 270 274 l100 102 -541 0 -541 0 19 -21z"/>
<path d="M1348 4820 l-374 -380 191 -190 c105 -104 194 -190 197 -190 6 0 323
317 931 931 l207 209 -388 0 -389 0 -375 -380z"/>
<path d="M2850 5125 c-41 -41 -72 -77 -69 -79 126 -133 375 -386 381 -386 4 0
112 106 240 236 128 131 245 248 261 262 15 14 27 29 27 34 0 4 -172 8 -383 8
l-383 0 -74 -75z"/>
<path d="M3755 4825 c-203 -207 -371 -379 -373 -383 -1 -4 85 -93 190 -199
l193 -191 574 574 574 574 -394 0 -394 0 -370 -375z"/>
<path d="M0 4592 l0 -388 173 -172 c347 -345 580 -572 588 -572 10 0 379 369
379 380 0 8 -1128 1140 -1136 1140 -2 0 -4 -175 -4 -388z"/>
<path d="M4845 4710 l-269 -269 270 -265 c148 -146 271 -266 274 -266 3 0 5
241 5 535 0 294 -2 535 -5 535 -3 0 -126 -121 -275 -270z"/>
<path d="M2374 4645 c-104 -107 -190 -198 -191 -202 -4 -10 969 -983 981 -983
5 0 94 86 198 191 l190 190 -335 337 c-185 185 -408 410 -495 499 l-160 162
-188 -194z"/>
<path d="M4170 4035 l-195 -195 570 -565 c314 -310 572 -565 575 -565 3 0 5
173 5 384 l0 384 -200 196 c-110 108 -281 278 -381 376 l-180 179 -194 -194z"/>
<path d="M1770 4035 c-102 -102 -187 -188 -190 -191 -5 -6 971 -984 982 -984
4 0 93 86 197 190 l189 190 -489 490 c-270 270 -493 490 -497 490 -4 0 -91
-83 -192 -185z"/>
<path d="M0 3387 l0 -384 75 -75 76 -76 92 90 c50 49 140 137 198 194 l106
104 -151 149 c-285 281 -387 381 -392 381 -2 0 -4 -172 -4 -383z"/>
<path d="M3269 3134 l-494 -494 194 -194 194 -194 494 494 494 494 -194 194
-194 194 -494 -494z"/>
<path d="M867 3134 c-268 -267 -487 -490 -487 -494 0 -9 365 -373 378 -378 10
-3 982 965 982 978 0 10 -369 380 -379 380 -4 0 -226 -219 -494 -486z"/>
<path d="M1467 2534 c-268 -268 -487 -490 -487 -494 0 -8 367 -373 379 -378 5
-1 229 218 499 488 l491 490 -190 190 c-105 104 -194 190 -197 190 -4 0 -227
-219 -495 -486z"/>
<path d="M3865 2530 l-490 -490 190 -190 c104 -104 193 -190 198 -190 4 0 229
220 498 490 l490 490 -190 190 c-104 104 -193 190 -198 190 -4 0 -229 -220
-498 -490z"/>
<path d="M0 2187 l0 -383 193 -191 c337 -336 561 -553 568 -553 4 0 93 85 197
190 l190 189 -272 270 c-517 514 -868 861 -872 861 -2 0 -4 -172 -4 -383z"/>
<path d="M4965 2418 c-5 -6 -95 -93 -200 -194 l-190 -184 270 -265 c149 -145
272 -265 275 -265 3 0 5 173 5 383 l0 384 -75 75 c-50 51 -78 73 -85 66z"/>
<path d="M2370 2236 c-102 -102 -185 -189 -185 -195 0 -12 965 -981 977 -981
3 0 92 86 197 190 l191 191 -491 489 c-270 270 -494 490 -497 490 -4 0 -90
-83 -192 -184z"/>
<path d="M1773 1639 c-103 -104 -188 -193 -188 -199 0 -12 964 -990 976 -990
4 0 29 22 56 49 26 27 113 115 191 195 l144 146 -495 493 -495 494 -189 -188z"/>
<path d="M4169 1634 l-194 -194 570 -570 c314 -313 572 -570 575 -570 3 0 5
175 5 389 l0 389 -200 196 c-110 109 -281 278 -381 376 l-180 179 -195 -195z"/>
<path d="M0 835 c0 -294 2 -535 4 -535 2 0 125 121 273 270 l270 269 -151 150
c-302 298 -387 381 -391 381 -3 0 -5 -241 -5 -535z"/>
<path d="M810 676 c-300 -299 -556 -556 -569 -570 l-24 -26 390 0 390 0 216
217 c450 454 527 534 527 543 0 11 -367 380 -378 380 -4 0 -252 -245 -552
-544z"/>
<path d="M3193 653 l-562 -568 384 -3 385 -2 127 129 c71 71 240 242 376 380
l249 251 -191 190 c-104 105 -194 190 -198 190 -5 0 -261 -255 -570 -567z"/>
<path d="M4097 357 l-266 -272 270 -3 c148 -1 390 -1 538 0 l269 3 -272 272
-272 272 -267 -272z"/>
<path d="M1691 353 l-262 -268 385 -3 385 -2 75 74 75 74 -45 49 c-110 116
-336 343 -343 343 -4 0 -126 -120 -270 -267z"/>
</g>
</svg>
